<?xml version="1.0" encoding="UTF-8"?>
<svg id="Layer_1" data-name="Layer 1" xmlns="http://www.w3.org/2000/svg" viewBox="0 0 1080 1080">
  <defs>
    <style>
      .cls-1 {
        fill: #f1f2f2;
      }

      .cls-1, .cls-2 {
        stroke-width: 0px;
      }

      .cls-2 {
        fill: #414042;
      }
    </style>
  </defs>
  <rect class="cls-1" x="0" width="1080.6" height="1079.88"/>
  <g>
    <path class="cls-2" d="M490.17,528.38v153.7h-50.4c-.85-18.42-1.7-36.6-2.75-59.43-8.51,6.56-14.6,10.28-19.49,15.19-25.13,25.21-51.29,49.57-74.43,76.52-16.71,19.45-28.91,19.48-43.17-.7-3.84-5.43-8.77-10.1-14.75-16.87,37.78-35.82,74.99-71.11,112.2-106.39-1.55-3.02-3.1-6.03-4.65-9.05-9.24-.52-18.48-1.38-27.73-1.51-32.37-.43-32.95-.84-31.92-32.59.19-5.76,1.34-11.5,2.24-18.87h154.86Z"/>
    <path class="cls-2" d="M532.97,486.66v-153.7h50.4c.85,18.42,1.7,36.6,2.75,59.43,8.51-6.56,14.6-10.28,19.49-15.19,25.13-25.21,48.41-52.34,74.43-76.52,19.42-18.05,28.91-19.48,43.17.7,3.84,5.43,8.77,10.1,14.75,16.87-37.78,35.82-74.99,71.11-112.2,106.39,1.55,3.02,3.1,6.03,4.65,9.05,9.24.52,18.48,1.38,27.73,1.51,32.37.43,32.95.84,31.92,32.59-.19,5.76-1.34,11.5-2.24,18.87h-154.86Z"/>
    <path class="cls-2" d="M760.37,793.31c-58.8-61.22-117.42-122.26-180.15-187.58-1.64,11.5-3.1,17.21-3.17,22.93-.35,29.74-1,59.5-.22,89.22.47,17.75-10.54,16.24-22.29,16.82-13.32.67-19.06-3.57-18.94-17.91.48-54.53.41-109.07-.41-163.59-.24-16.23,6.24-20.47,21.47-20.26,53.11.72,106.23.52,159.34.21,13.78-.08,22.53,1.98,22.79,19.32.27,18.02-8.14,21.32-23.31,21.06-33.01-.57-66.03-.18-99.04-.18-1.02,2.08-2.04,4.17-3.05,6.25,60.12,60.7,120.25,121.4,181.44,183.17-10.47,9.27-19.29,17.1-34.45,30.53Z"/>
    <path class="cls-2" d="M487.41,484.7h-128.14v-42.02c15.36-.71,30.51-1.41,49.55-2.3-5.47-7.1-8.57-12.17-12.67-16.25-21.02-20.95-41.33-42.76-63.79-62.05-16.22-13.93-16.24-24.11.59-35.99,4.53-3.2,8.42-7.31,14.06-12.3,29.87,31.5,59.28,62.52,88.7,93.54,2.51-1.29,5.03-2.59,7.54-3.88.44-7.71,1.15-15.41,1.26-23.12.36-26.99.7-27.47,27.17-26.61,4.81.16,9.58,1.11,15.73,1.87v129.11Z"/>
  </g>
</svg>