<?xml version="1.0" encoding="UTF-8"?>
<svg id="Layer_2" data-name="Layer 2" xmlns="http://www.w3.org/2000/svg" viewBox="0 0 821.55 303.32">
  <defs>
    <style>
      .cls-1 {
        fill: #f1f2f2;
        stroke-width: 0px;
      }
    </style>
  </defs>
  <g id="Layer_1-2" data-name="Layer 1">
    <g>
      <g>
        <path class="cls-1" d="M122.73,144.7v92.02h-30.18c-.51-11.03-1.02-21.91-1.65-35.58-5.1,3.93-8.74,6.16-11.67,9.1-15.04,15.09-30.71,29.68-44.56,45.81-10,11.65-17.31,11.66-25.84-.42-2.3-3.25-5.25-6.04-8.83-10.1,22.62-21.45,44.9-42.57,67.18-63.7-.93-1.81-1.86-3.61-2.79-5.42-5.53-.31-11.07-.83-16.6-.9-19.38-.26-19.73-.5-19.11-19.51.11-3.45.8-6.88,1.34-11.3h92.72Z"/>
        <path class="cls-1" d="M148.36,119.72V27.7h30.18c.51,11.03,1.02,21.91,1.65,35.58,5.1-3.93,8.74-6.16,11.67-9.1,15.04-15.09,28.99-31.34,44.56-45.81,11.63-10.8,17.31-11.66,25.84.42,2.3,3.25,5.25,6.04,8.83,10.1-22.62,21.45-44.9,42.57-67.18,63.7.93,1.81,1.86,3.61,2.79,5.42,5.53.31,11.07.83,16.6.9,19.38.26,19.73.5,19.11,19.51-.11,3.45-.8,6.88-1.34,11.3h-92.72Z"/>
        <path class="cls-1" d="M284.51,303.32c-35.2-36.66-70.3-73.2-107.86-112.31-.98,6.89-1.86,10.3-1.9,13.73-.21,17.81-.6,35.62-.13,53.42.28,10.63-6.31,9.72-13.35,10.07-7.98.4-11.41-2.14-11.34-10.72.29-32.65.24-65.3-.24-97.94-.15-9.72,3.74-12.26,12.85-12.13,31.8.43,63.6.31,95.4.13,8.25-.05,13.49,1.19,13.64,11.57.16,10.79-4.87,12.76-13.96,12.61-19.76-.34-39.53-.1-59.3-.1-.61,1.25-1.22,2.5-1.83,3.74,36,36.34,72,72.68,108.63,109.67-6.27,5.55-11.55,10.24-20.63,18.28Z"/>
        <path class="cls-1" d="M121.08,118.55H44.36v-25.16c9.19-.43,18.27-.85,29.67-1.38-3.28-4.25-5.13-7.29-7.58-9.73-12.58-12.54-24.75-25.6-38.2-37.15-9.71-8.34-9.72-14.43.35-21.55,2.71-1.92,5.04-4.38,8.42-7.36,17.88,18.86,35.49,37.43,53.11,56.01,1.51-.77,3.01-1.55,4.52-2.32.26-4.61.69-9.23.75-13.84.21-16.16.42-16.45,16.27-15.93,2.88.09,5.74.67,9.42,1.12v77.3Z"/>
      </g>
      <g>
        <path class="cls-1" d="M426.78,106.41l-9.73,12.12c-7.19-7.75-17.48-12.55-27.49-12.55-19.73,0-35.24,15.23-35.24,34.68s15.51,34.82,35.24,34.82c9.87,0,20.02-4.51,27.49-11.7l9.87,11c-10.01,9.87-24.25,16.21-38.2,16.21-28.9,0-51.32-21.85-51.32-50.19s22.69-49.62,51.88-49.62c13.96,0,27.91,5.78,37.5,15.22Z"/>
        <path class="cls-1" d="M489.81,160.4c-1.41.14-2.96.14-4.51.14h-23.4v29.75h-16.63v-98.68h40.04c25.23,0,39.75,12.26,39.75,33.69,0,15.79-7.33,26.93-20.44,32l22.14,32.99h-18.89l-18.04-29.89ZM485.3,145.6c15.23,0,23.97-6.48,23.97-19.88s-8.74-19.17-23.97-19.17h-23.4v39.05h23.4Z"/>
        <path class="cls-1" d="M731.17,101.06l-6.91,14.66c-10.72-6.48-21.43-9.16-28.9-9.16-9.73,0-16.07,3.67-16.07,10.29,0,21.57,53.29,10.01,53.15,45.53,0,17.62-15.51,28.48-37.22,28.48-15.5,0-30.17-6.34-40.32-15.65l7.19-14.38c10.15,9.3,22.84,14.38,33.41,14.38,11.56,0,18.47-4.37,18.47-11.98,0-21.99-53.29-9.73-53.29-44.83,0-16.92,14.52-27.49,35.95-27.49,12.83,0,25.37,4.09,34.54,10.15Z"/>
        <path class="cls-1" d="M820.28,101.06l-6.91,14.66c-10.72-6.48-21.43-9.16-28.9-9.16-9.73,0-16.07,3.67-16.07,10.29,0,21.57,53.29,10.01,53.15,45.53,0,17.62-15.51,28.48-37.22,28.48-15.5,0-30.17-6.34-40.32-15.65l7.19-14.38c10.15,9.3,22.84,14.38,33.41,14.38,11.56,0,18.47-4.37,18.47-11.98,0-21.99-53.29-9.73-53.29-44.83,0-16.92,14.52-27.49,35.95-27.49,12.83,0,25.37,4.09,34.54,10.15Z"/>
        <g>
          <path class="cls-1" d="M342.05,74.99v-13.38h-3.42v-3.13h3.42v-6.96l3.58-1.73v8.68h5.19v3.13h-5.19v12.18c0,1.61.33,2.88,2.18,2.88,1.19,0,2.22-.54,3.13-1.11l-.41,3.5c-1.11.58-2.39.95-4.03.95-3.17,0-4.45-2.06-4.45-5.02Z"/>
          <path class="cls-1" d="M356.21,51.44l3.58-1.65v10.87c1.32-1.81,3.17-2.68,5.43-2.68,4.78,0,7.53,2.63,7.53,9.43v12.1h-3.58v-12.72c0-3.99-1.93-5.52-4.53-5.52-2.76,0-4.86,1.36-4.86,5.43v12.8h-3.58v-28.07Z"/>
          <path class="cls-1" d="M378.14,68.98c0-6.96,3.75-10.99,9.34-10.99,4.73,0,8.68,3.09,8.68,10,0,.66-.04,1.56-.12,2.39h-14.24c.29,3.87,2.59,6.38,5.76,6.38,1.61,0,3.21-.58,4.53-1.89l2.18,2.43c-1.56,1.56-3.95,2.72-6.79,2.72-5.76,0-9.34-4.61-9.34-11.03ZM392.55,67.33c-.04-4.78-2.84-6.17-5.06-6.17-3.05,0-5.52,1.85-5.72,6.17h10.78Z"/>
        </g>
        <g>
          <path class="cls-1" d="M342.07,210.16h15.51v1.36h-14.02v11.91h9.47v1.36h-9.47v14.31h-1.49v-28.95Z"/>
          <path class="cls-1" d="M392.11,210.16h15.1v1.36h-13.61v11.91h9.18v1.36h-9.18v12.95h14.52v1.36h-16.01v-28.95Z"/>
          <path class="cls-1" d="M443.48,210.16h1.49v27.59h14.35v1.36h-15.84v-28.95Z"/>
          <path class="cls-1" d="M492.82,210.16h1.49v27.59h14.35v1.36h-15.84v-28.95Z"/>
          <path class="cls-1" d="M540.51,224.63c0-7.16,3.02-14.97,11.29-14.97s11.29,7.82,11.29,14.97-3.02,14.97-11.29,14.97-11.29-7.82-11.29-14.97ZM561.48,224.63c0-6.87-2.48-13.48-9.68-13.48s-9.68,7.2-9.68,13.48c0,6.87,2.48,13.48,9.68,13.48s9.68-7.2,9.68-13.48Z"/>
          <path class="cls-1" d="M595.68,210.16h1.61l5.58,23.16c.17.7.33,1.36.5,2.15.17-.74.33-1.41.5-2.07l5.79-23.24h1.24l5.79,23.24c.17.66.33,1.32.5,2.07.17-.79.33-1.45.5-2.15l5.58-23.16h1.61l-7.03,28.95h-1.24l-5.21-20.85c-.37-1.49-.74-2.98-1.12-4.55-.37,1.57-.74,3.06-1.12,4.55l-5.21,20.85h-1.24l-7.03-28.95Z"/>
          <path class="cls-1" d="M657.89,233.53l1.57-.5c1.36,3.06,4.14,5.13,7.57,5.13,4.09,0,6.82-2.15,6.82-6.25s-3.35-6.25-6.99-7.65c-3.85-1.53-8.02-3.47-8.02-8.27,0-3.6,2.77-6.33,7.82-6.33,3.6,0,6.58,1.86,7.53,4.76l-1.49.45c-.99-2.4-3.06-3.76-6.16-3.76-3.85,0-6.12,1.9-6.12,4.96,0,3.72,3.56,5.29,7.11,6.74,3.64,1.49,7.9,3.85,7.9,9.14,0,4.88-3.52,7.65-8.44,7.65-4.43,0-7.73-2.81-9.1-6.08Z"/>
          <path class="cls-1" d="M727.62,224.76h-15.55v14.35h-1.49v-28.95h1.49v13.19h15.55v-13.19h1.49v28.95h-1.49v-14.35Z"/>
          <path class="cls-1" d="M765.5,210.16h1.49v28.95h-1.49v-28.95Z"/>
          <path class="cls-1" d="M803.39,210.16h9.06c6.91,0,9.1,4.3,9.1,8.52,0,3.89-2.44,8.48-9.1,8.48h-7.57v11.95h-1.49v-28.95ZM820.06,218.68c0-3.47-1.7-7.03-7.61-7.03h-7.57v14.02h7.57c5.71,0,7.61-3.81,7.61-6.99Z"/>
        </g>
        <path class="cls-1" d="M639.01,123.77h-49.03c.22,3.17-1.56,3.33-3.86,3.3-8.39-.11-16.78-.04-25.16-.04q-4.26,0-5.3,4.12c-.2.78-.32,1.58-.52,2.59h76.48c-.79-2.73-1.5-5.17-2.35-8.11,3.49,0,6.82-.03,10.15.05.37,0,.93.64,1.04,1.07.73,2.91,1.35,5.85,2.12,9.23-1.83,0-3.09,0-4.35,0-26.55,0-53.09,0-79.64,0-3.73,0-5.49,2.43-4.07,5.9.24.58,1.6.99,2.45.99,9.77.07,19.54.05,29.31.05.99,0,1.98,0,2.99,0,.3,1.17.52,2.05.78,3.08h41.9c.15-2.68.28-5.23.43-8h9.83v10.1h-52.18c.2,3.44-1.87,3.42-4.29,3.39-8.85-.1-17.7-.04-26.55-.03-.98,0-1.95,0-3.03,0-.02,2.63.66,3.84,3.34,3.8,8.94-.14,17.88,0,26.82-.09,2.26-.03,3.85.27,3.57,3.29,1.53,0,2.9,0,4.26,0,10.32,0,20.65-.08,30.97.06,2.45.03,3.6-.81,4.43-3.04,2.02-5.44,2.11-5.41,7.93-5.42,1.27,0,2.54,0,4.51,0-1.09,3.44-1.91,6.51-3.1,9.42-.24.59-1.87.87-2.86.87-14.19.05-28.39.04-42.58.03-1.09,0-2.19,0-3.46,0,.12,2.97-1.48,3.31-3.85,3.27-7.92-.14-15.84-.05-24.33-.05.63,1,.97,1.69,1.44,2.26,15.85,19.54,46.18,18.9,61.13-1.36,1.26-1.71,2.52-2.37,4.56-2.26,2.75.15,5.51.04,8.31.04-3.33,16.01-28.98,30.16-49.87,27.73-25.45-2.97-44.3-25.26-43.34-51.25.93-24.89,21.4-45.8,46.1-47.1,21.74-1.14,46.55,15.01,48.88,32.1ZM626.48,121.5c-3.89-8.79-17.9-20.61-36.22-19.32-11.98.85-25.36,9.68-27.73,16.2,7.72,0,15.36.02,22.99-.01,2.33-.01,4.79-.41,4.62,3.13h36.34Z"/>
      </g>
    </g>
  </g>
</svg>